<?xml version="1.0" encoding="UTF-8"?>
<!DOCTYPE svg PUBLIC "-//W3C//DTD SVG 1.1//EN" "http://www.w3.org/Graphics/SVG/1.1/DTD/svg11.dtd">
<svg xmlns="http://www.w3.org/2000/svg" version="1.1" width="400px" height="244px" style="shape-rendering:geometricPrecision; text-rendering:geometricPrecision; image-rendering:optimizeQuality; fill-rule:evenodd; clip-rule:evenodd" xmlns:xlink="http://www.w3.org/1999/xlink">
<g><path style="opacity:0" fill="#fefefe" d="M -0.5,-0.5 C 22.1667,-0.5 44.8333,-0.5 67.5,-0.5C 32.8574,6.3062 11.3574,26.9729 3,61.5C 2.33333,101.833 2.33333,142.167 3,182.5C 10.6452,215.312 30.8119,235.645 63.5,243.5C 42.1667,243.5 20.8333,243.5 -0.5,243.5C -0.5,162.167 -0.5,80.8333 -0.5,-0.5 Z"/></g>
<g><path style="opacity:1" fill="#2394d1" d="M 67.5,-0.5 C 79.1667,-0.5 90.8333,-0.5 102.5,-0.5C 102.807,5.09345 102.473,10.5934 101.5,16C 89.5,16.3333 77.5,16.6667 65.5,17C 39.3503,23.4833 23.8503,39.9833 19,66.5C 18.3333,103.167 18.3333,139.833 19,176.5C 23.0356,200.538 36.5356,216.705 59.5,225C 62.7895,225.882 66.1228,226.548 69.5,227C 91.8333,227.667 114.167,227.667 136.5,227C 121.284,214.742 112.117,198.909 109,179.5C 108.5,119.501 108.333,59.5009 108.5,-0.5C 113.833,-0.5 119.167,-0.5 124.5,-0.5C 124.333,57.1676 124.5,114.834 125,172.5C 128.68,202.847 145.514,221.014 175.5,227C 189.163,227.5 202.829,227.667 216.5,227.5C 216.5,157.167 216.5,86.8333 216.5,16.5C 188.165,16.6666 159.831,16.5 131.5,16C 130.527,10.5934 130.193,5.09345 130.5,-0.5C 193.167,-0.5 255.833,-0.5 318.5,-0.5C 318.5,5.16667 318.5,10.8333 318.5,16.5C 290.167,16.5 261.833,16.5 233.5,16.5C 233.5,86.8333 233.5,157.167 233.5,227.5C 273.168,227.667 312.835,227.5 352.5,227C 338.161,215.17 329.327,200.003 326,181.5C 325.5,120.834 325.333,60.1676 325.5,-0.5C 330.833,-0.5 336.167,-0.5 341.5,-0.5C 341.333,58.1676 341.5,116.834 342,175.5C 348.038,207.372 367.205,224.706 399.5,227.5C 399.5,232.833 399.5,238.167 399.5,243.5C 287.5,243.5 175.5,243.5 63.5,243.5C 30.8119,235.645 10.6452,215.312 3,182.5C 2.33333,142.167 2.33333,101.833 3,61.5C 11.3574,26.9729 32.8574,6.3062 67.5,-0.5 Z"/></g>
<g><path style="opacity:0" fill="#fefffe" d="M 102.5,-0.5 C 104.5,-0.5 106.5,-0.5 108.5,-0.5C 108.333,59.5009 108.5,119.501 109,179.5C 112.117,198.909 121.284,214.742 136.5,227C 114.167,227.667 91.8333,227.667 69.5,227C 66.1228,226.548 62.7895,225.882 59.5,225C 36.5356,216.705 23.0356,200.538 19,176.5C 18.3333,139.833 18.3333,103.167 19,66.5C 23.8503,39.9833 39.3503,23.4833 65.5,17C 77.5,16.6667 89.5,16.3333 101.5,16C 102.473,10.5934 102.807,5.09345 102.5,-0.5 Z"/></g>
<g><path style="opacity:0" fill="#fefffe" d="M 124.5,-0.5 C 126.5,-0.5 128.5,-0.5 130.5,-0.5C 130.193,5.09345 130.527,10.5934 131.5,16C 159.831,16.5 188.165,16.6666 216.5,16.5C 216.5,86.8333 216.5,157.167 216.5,227.5C 202.829,227.667 189.163,227.5 175.5,227C 145.514,221.014 128.68,202.847 125,172.5C 124.5,114.834 124.333,57.1676 124.5,-0.5 Z"/></g>
<g><path style="opacity:0" fill="#fefffe" d="M 318.5,-0.5 C 320.833,-0.5 323.167,-0.5 325.5,-0.5C 325.333,60.1676 325.5,120.834 326,181.5C 329.327,200.003 338.161,215.17 352.5,227C 312.835,227.5 273.168,227.667 233.5,227.5C 233.5,157.167 233.5,86.8333 233.5,16.5C 261.833,16.5 290.167,16.5 318.5,16.5C 318.5,10.8333 318.5,5.16667 318.5,-0.5 Z"/></g>
<g><path style="opacity:0" fill="#fefffe" d="M 341.5,-0.5 C 360.833,-0.5 380.167,-0.5 399.5,-0.5C 399.5,75.5 399.5,151.5 399.5,227.5C 367.205,224.706 348.038,207.372 342,175.5C 341.5,116.834 341.333,58.1676 341.5,-0.5 Z"/></g>
</svg>
