<?xml version="1.0" standalone="no"?>
<!DOCTYPE svg PUBLIC "-//W3C//DTD SVG 20010904//EN"
 "http://www.w3.org/TR/2001/REC-SVG-20010904/DTD/svg10.dtd">
<svg version="1.0" xmlns="http://www.w3.org/2000/svg"
 width="288.000000pt" height="288.000000pt" viewBox="0 0 288.000000 288.000000"
 preserveAspectRatio="xMidYMid meet">
<metadata>
Created by potrace 1.14, written by Peter Selinger 2001-2017
</metadata>
<g transform="translate(0.000000,288.000000) scale(0.100000,-0.100000)"
fill="#000000" stroke="none">
<path d="M0 1440 l0 -1440 1440 0 1440 0 0 1440 0 1440 -1440 0 -1440 0 0
-1440z m790 731 l0 -49 -122 -4 c-180 -8 -270 -51 -350 -168 -65 -95 -70 -132
-66 -537 3 -348 4 -360 26 -416 33 -81 114 -166 194 -203 l63 -29 239 -3 240
-3 -50 53 c-63 67 -111 164 -124 254 -5 39 -10 305 -10 612 l0 542 50 0 50 0
0 -542 c0 -300 4 -569 10 -602 20 -121 96 -223 208 -278 65 -32 69 -33 224
-36 l158 -4 0 681 0 681 -275 0 -275 0 0 50 0 50 597 -2 597 -3 -1 -27 c-3
-76 28 -68 -273 -68 l-270 0 0 -680 0 -680 386 0 385 0 -34 32 c-43 42 -99
129 -123 193 -18 46 -19 92 -22 643 l-3 592 50 0 50 0 3 -587 3 -588 28 -61
c57 -122 186 -214 315 -222 l62 -4 0 -49 0 -49 -1086 0 c-1056 0 -1089 1
-1154 20 -72 21 -164 80 -217 139 -47 51 -102 165 -113 236 -13 79 -13 682 0
765 15 93 62 184 134 256 105 105 204 142 384 143 l112 1 0 -49z"/>
</g>
</svg>
